<?xml version="1.0" encoding="utf-8" standalone="no"?><!DOCTYPE svg PUBLIC "-//W3C//DTD SVG 20010904//EN" "http://www.w3.org/TR/2001/REC-SVG-20010904/DTD/svg10.dtd"><svg xmlns="http://www.w3.org/2000/svg" width="436" height="250" xmlns:xlink="http://www.w3.org/1999/xlink"><source><![CDATA[Client->Server: register logout notice
Server->Server: login
Server->Client: notice logout]]></source><desc></desc><defs><marker viewBox="0 0 5 5" markerWidth="5" markerHeight="5" orient="auto" refX="5" refY="2.5" id="markerArrowBlock"><path d="M 0 0 L 5 2.5 L 0 5 z"></path></marker><marker viewBox="0 0 9.6 16" markerWidth="4" markerHeight="16" orient="auto" refX="9.6" refY="8" id="markerArrowOpen"><path d="M 9.6,8 1.92,16 0,13.7 5.76,8 0,2.286 1.92,0 9.6,8 z"></path></marker></defs><g class="title"></g><g class="actor"><rect x="10" y="20" width="77.609375" height="38" stroke="#000000" fill="#ffffff" style="stroke-width: 2;"></rect><text x="20" y="44.5" style="font-size: 16px; font-family: &quot;Andale Mono&quot;, monospace;"><tspan x="20">Client</tspan></text></g><g class="actor"><rect x="10" y="192" width="77.609375" height="38" stroke="#000000" fill="#ffffff" style="stroke-width: 2;"></rect><text x="20" y="216.5" style="font-size: 16px; font-family: &quot;Andale Mono&quot;, monospace;"><tspan x="20">Client</tspan></text></g><line x1="48.8046875" x2="48.8046875" y1="58" y2="192" stroke="#000000" fill="none" style="stroke-width: 2;"></line><g class="actor"><rect x="241.234375" y="20" width="77.609375" height="38" stroke="#000000" fill="#ffffff" style="stroke-width: 2;"></rect><text x="251.234375" y="44.5" style="font-size: 16px; font-family: &quot;Andale Mono&quot;, monospace;"><tspan x="251.234375">Server</tspan></text></g><g class="actor"><rect x="241.234375" y="192" width="77.609375" height="38" stroke="#000000" fill="#ffffff" style="stroke-width: 2;"></rect><text x="251.234375" y="216.5" style="font-size: 16px; font-family: &quot;Andale Mono&quot;, monospace;"><tspan x="251.234375">Server</tspan></text></g><line x1="280.0390625" x2="280.0390625" y1="58" y2="192" stroke="#000000" fill="none" style="stroke-width: 2;"></line><g class="signal"><text x="58.8046875" y="88.5" style="font-size: 16px; font-family: &quot;Andale Mono&quot;, monospace;"><tspan x="58.8046875">register logout notice</tspan></text><line x1="48.8046875" x2="280.0390625" y1="96" y2="96" stroke="#000000" fill="none" style="stroke-width: 2; marker-end: url(&quot;#markerArrowBlock&quot;);"></line></g><g class="signal"><text x="305.0390625" y="130" style="font-size: 16px; font-family: &quot;Andale Mono&quot;, monospace;"><tspan x="305.0390625">login</tspan></text><line x1="280.0390625" x2="300.0390625" y1="116" y2="116" stroke="#000000" fill="none" style="stroke-width: 2;"></line><line x1="300.0390625" x2="300.0390625" y1="116" y2="139" stroke="#000000" fill="none" style="stroke-width: 2;"></line><line x1="300.0390625" x2="280.0390625" y1="139" y2="139" stroke="#000000" fill="none" style="stroke-width: 2; marker-end: url(&quot;#markerArrowBlock&quot;);"></line></g><g class="signal"><text x="102.015625" y="164.5" style="font-size: 16px; font-family: &quot;Andale Mono&quot;, monospace;"><tspan x="102.015625">notice logout</tspan></text><line x1="280.0390625" x2="48.8046875" y1="172" y2="172" stroke="#000000" fill="none" style="stroke-width: 2; marker-end: url(&quot;#markerArrowBlock&quot;);"></line></g></svg>